<svg xmlns="http://www.w3.org/2000/svg" xmlns:xlink="http://www.w3.org/1999/xlink" viewBox="0 0 1920 888"><defs><style>.cls-1{fill:url(#linear-gradient);}.cls-2{fill:url(#linear-gradient-2);}.cls-3{fill:url(#linear-gradient-3);}</style><linearGradient id="linear-gradient" x1="-191.86" y1="206.36" x2="1015.14" y2="206.36" gradientTransform="translate(82.89 45.04) rotate(-4.19)" gradientUnits="userSpaceOnUse"><stop offset="0" stop-color="#45a129"/><stop offset="1" stop-color="#9fdaae"/></linearGradient><linearGradient id="linear-gradient-2" x1="583" y1="231.52" x2="1942" y2="231.52" gradientUnits="userSpaceOnUse"><stop offset="0" stop-color="#e56b0f"/><stop offset="0.17" stop-color="#e3881d"/><stop offset="0.37" stop-color="#e2a32a"/><stop offset="0.57" stop-color="#e1b634"/><stop offset="0.78" stop-color="#e0c139"/><stop offset="1" stop-color="#e0c53b"/></linearGradient><linearGradient id="linear-gradient-3" x1="-42" y1="470.93" x2="1967" y2="470.93" gradientUnits="userSpaceOnUse"><stop offset="0" stop-color="#1552a7"/><stop offset="1" stop-color="#2295d6"/></linearGradient></defs><title>footer</title><g id="Footer"><path class="cls-1" d="M-108.44,13.47S4.46-28.52,151.37,37s192.3,126.87,300.12,116.21,259.78-123.49,470,1S1129.1,435.26,1129.1,435.26L-74.46,523.37Z"/><path class="cls-2" d="M688.5,302.65c22.09-44.8,55.67-81.69,97-105,47-26.48,115.43-47.56,207-33.94,197.15,29.33,231.21,99.88,313.84,61.83S1668-89.16,1942,32.92V461H583S637,407.06,688.5,302.65Z"/><path class="cls-3" d="M-42,72S201-22,427,218c0,0,63,80,196,70s268-110,533-31,356-30,394-63S1720,19,1967,68V887L-39,888Z"/></g></svg>