<svg xmlns="http://www.w3.org/2000/svg" viewBox="0 0 334 113"><defs><style>.cls-1{font-size:72.56px;font-family:Lato-Black, Lato;}.cls-1,.cls-2,.cls-3,.cls-4,.cls-5{fill:#fff;}.cls-2{font-size:12.85px;}.cls-4{opacity:0.49;}.cls-5{stroke:#231f20;stroke-miterlimit:10;stroke-width:0.25px;}</style></defs><title>logo-2</title><g id="Footer"><text class="cls-1" transform="translate(8 70.56)">K</text><text class="cls-1" transform="translate(143.92 70.56)">PSI</text><text class="cls-2" transform="translate(262.37 26.44) scale(1.02 1)">Kompetisi <tspan x="0" y="14.38">Penelitian </tspan><tspan x="0" y="28.75">Siswa </tspan><tspan x="0" y="43.13">Indonesia</tspan></text><path class="cls-3" d="M128.44,53.44A25.18,25.18,0,0,0,98.82,24l0-.23a16.53,16.53,0,0,1,5.8-.93,30.36,30.36,0,0,1,29,31.61c0,.19,0,.37,0,.56l-5.25-1.11Z"/><path class="cls-3" d="M104.57,22.86a16.53,16.53,0,0,0-5.8.93l-1.07-5.34A30.86,30.86,0,0,1,134,54.51c0,.19-.08.39-.12.58l-.31-.07c0-.19,0-.37,0-.56A30.36,30.36,0,0,0,104.57,22.86Z"/><path class="cls-3" d="M128.44,53.44A25.18,25.18,0,0,0,98.82,24l0-.23a16.53,16.53,0,0,1,5.8-.93,30.36,30.36,0,0,1,29,31.61c0,.19,0,.37,0,.56l-5.25-1.11Z"/><path class="cls-3" d="M78.93,43.39c0,.16-.07.31-.1.47a25.18,25.18,0,0,0,29.63,29.43l1.11,5.57A30.86,30.86,0,0,1,73.25,42.8c0-.19.08-.39.12-.58Z"/><path class="cls-3" d="M96,11.51l.72-.14v0l-.65.24A37.88,37.88,0,0,0,77.25,66.2l-5.14,3.43A37.88,37.88,0,0,1,96,11.51Z"/><path class="cls-3" d="M96.08,11.64l.65-.24L98,18.23l-.58.11A30.91,30.91,0,0,0,77.92,65.76l-.66.44A37.88,37.88,0,0,1,96.08,11.64Z"/><path class="cls-3" d="M96.08,11.64l.65-.24L98,18.23l-.58.11A30.91,30.91,0,0,0,77.92,65.76l-.66.44A37.88,37.88,0,0,1,96.08,11.64Z"/><path class="cls-3" d="M132.68,72.56l-.46.56h0l.35-.6a37.88,37.88,0,0,0-20.17-54.07l1.78-5.91a37.88,37.88,0,0,1,18.52,60Z"/><path class="cls-3" d="M132.55,72.51l-.35.6-5.32-4.47.38-.46a30.91,30.91,0,0,0-15.11-49l.23-.76a37.88,37.88,0,0,1,20.17,54.07Z"/><path class="cls-3" d="M121.3,38.07a20.66,20.66,0,0,0-34.22-1.28l-1-.71a25.32,25.32,0,0,1,39.23.05l-3.84,2.27Z"/><path class="cls-3" d="M90.7,31.72a25.36,25.36,0,0,0-4.6,4.36l-2.79-2a25.32,25.32,0,0,1,41.94,1.57l.25.42-.17.1A25.29,25.29,0,0,0,90.7,31.72Z"/><path class="cls-3" d="M120.83,38.18A20.66,20.66,0,0,0,86.62,36.9l-1-.71a25.32,25.32,0,0,1,39.23.05L121,38.52Z"/><path class="cls-3" d="M108.9,32.92l-.16-.05h.17Z"/><path class="cls-3" d="M109.41,29.11l.29.08.38.12-1.17,3.57h-.17l-.15,0A16.83,16.83,0,0,0,86.9,50.4l-.48,0a19.87,19.87,0,0,1,.08-2.94C87.63,36.37,97.82,28.25,109.41,29.11Z"/><path class="cls-3" d="M83.69,43a20.62,20.62,0,0,1,25.47-13.76c-11.59-.86-21.78,7.26-22.91,18.39a19.87,19.87,0,0,0-.08,2.94l-3.3.3A20.56,20.56,0,0,1,83.69,43Z"/><path class="cls-3" d="M109.16,29.27l.29.08.38.12L108.65,33h-.17l-.15,0A16.83,16.83,0,0,0,86.65,50.56l-.48,0a19.87,19.87,0,0,1,.08-2.94C87.38,36.53,97.57,28.41,109.16,29.27Z"/><path class="cls-3" d="M120.35,74.55l3.56,5.76A37.87,37.87,0,0,1,83,80.23l-.55-.36.61.25A37.84,37.84,0,0,0,120.35,74.55Z"/><polygon class="cls-3" points="82.43 79.83 82.44 79.82 82.43 79.83 82.43 79.83"/><path class="cls-4" d="M82.43,79.83l.06,0-.06,0Z"/><path class="cls-3" d="M82.44,79.82,86.31,74l.49.33a30.9,30.9,0,0,0,33.44,0l.11.17A37.84,37.84,0,0,1,83.1,80.12l-.61-.25-.06,0Z"/><path class="cls-3" d="M82.44,79.82,86.31,74l.49.33a30.9,30.9,0,0,0,33.44,0l.11.17A37.84,37.84,0,0,1,83.1,80.12l-.61-.25-.06,0Z"/><path class="cls-3" d="M103,74.26a16.53,16.53,0,0,0,5.79-1l1.14,5.33A30.86,30.86,0,0,1,73.09,43c0-.2.07-.39.11-.58l.31.06c0,.19,0,.37,0,.56A30.36,30.36,0,0,0,103,74.26Z"/><path class="cls-3" d="M78.68,44a25.18,25.18,0,0,0,30,29l0,.23a16.53,16.53,0,0,1-5.79,1A30.36,30.36,0,0,1,73.49,43.06c0-.19,0-.37,0-.56l5.26,1C78.74,43.69,78.71,43.85,78.68,44Z"/><path class="cls-3" d="M115.16,66.37a25.36,25.36,0,0,0,4.9-4l2.63,2.23A25.32,25.32,0,0,1,81,60l-.22-.43.18-.09A25.29,25.29,0,0,0,115.16,66.37Z"/><path class="cls-3" d="M85.27,58.11a20.66,20.66,0,0,0,34,3.76l.92.78a25.32,25.32,0,0,1-39.13-2.9l4-2Z"/><path class="cls-3" d="M123,54.8A20.62,20.62,0,0,1,97.51,68.56c11.59.86,21.78-7.26,22.91-18.39a19.87,19.87,0,0,0,.08-2.94l3.3-.3A20.56,20.56,0,0,1,123,54.8Z"/><path class="cls-3" d="M97.51,68.56l-.29-.08-.38-.12L98,64.79h.17l.15,0A16.83,16.83,0,0,0,120,47.27l.48,0a19.87,19.87,0,0,1-.08,2.94C119.29,61.3,109.1,69.42,97.51,68.56Z"/><circle class="cls-5" cx="103.64" cy="48.95" r="12.29" transform="translate(-8.5 25.22) rotate(-13.33)"/><path class="cls-5" d="M103.81,61.24A12.29,12.29,0,0,1,91.35,49.13l24.57-.36A12.29,12.29,0,0,1,103.81,61.24Z"/><rect class="cls-3" x="70.03" y="74.58" width="7" height="5.78" transform="translate(65.2 183.95) rotate(-132.02)"/><rect class="cls-3" x="52.33" y="76.24" width="9.78" height="31.85" transform="translate(27.06 196.36) rotate(-132.02)"/></g></svg>