<svg xmlns="http://www.w3.org/2000/svg" xmlns:xlink="http://www.w3.org/1999/xlink" viewBox="0 0 541 518"><defs><style>.cls-1{fill:url(#linear-gradient);}</style><linearGradient id="linear-gradient" x1="330.33" y1="-174.36" x2="330.33" y2="339.37" gradientTransform="translate(-67.73 216.23) rotate(-6.84)" gradientUnits="userSpaceOnUse"><stop offset="0" stop-color="#45a129"/><stop offset="1" stop-color="#9fdaae"/></linearGradient></defs><title>menu-3</title><g id="Introduksi"><path class="cls-1" d="M2.93,249.23l-1.35,11A115.88,115.88,0,0,0,17.8,335L30.94,356.4a115.88,115.88,0,0,1,8.54,16.88l13.66,33.53a115.88,115.88,0,0,0,90.37,70.93l10.56,1.56a115.88,115.88,0,0,1,35.38,11.24l27.17,13.75A115.88,115.88,0,0,0,298.21,513l64.3-16.78a115.88,115.88,0,0,0,11.7-3.72l55.42-20.94a115.88,115.88,0,0,0,72-82.47l5.74-25a115.88,115.88,0,0,1,4.24-14.21l21.66-58.64A115.88,115.88,0,0,0,535,216.14l-12.54-39.58q-1-3.27-2.26-6.47l-24.68-64.42A115.88,115.88,0,0,0,410.3,33.55L377.74,27a115.88,115.88,0,0,1-12.06-3.12L309,5.86a115.88,115.88,0,0,0-88,7.41l-46.6,24L114.57,65a115.88,115.88,0,0,0-64.1,78.82l-.11.49a115.88,115.88,0,0,1-22.64,46.43h0A115.88,115.88,0,0,0,2.93,249.23Z"/></g></svg>