<svg xmlns="http://www.w3.org/2000/svg" xmlns:xlink="http://www.w3.org/1999/xlink" viewBox="0 0 558 535"><defs><style>.cls-1{fill:url(#linear-gradient);}</style><linearGradient id="linear-gradient" x1="338.46" y1="-171.98" x2="338.46" y2="358.35" gradientTransform="translate(-67.73 216.23) rotate(-6.84)" gradientUnits="userSpaceOnUse"><stop offset="0" stop-color="#e56b0f"/><stop offset="0.17" stop-color="#e3881d"/><stop offset="0.37" stop-color="#e2a32a"/><stop offset="0.57" stop-color="#e1b634"/><stop offset="0.78" stop-color="#e0c139"/><stop offset="1" stop-color="#e0c53b"/></linearGradient></defs><title>menu-2</title><g id="Introduksi"><path class="cls-1" d="M3.64,258.56l-1.4,11.31A119.63,119.63,0,0,0,19,347.07l13.57,22.12a119.63,119.63,0,0,1,8.82,17.42l14.1,34.62a119.63,119.63,0,0,0,93.29,73.22l10.9,1.61a119.63,119.63,0,0,1,36.52,11.61l28.05,14.2a119.63,119.63,0,0,0,84.23,9l66.37-17.32a119.63,119.63,0,0,0,12.08-3.85l57.21-21.62A119.63,119.63,0,0,0,518.44,403l5.93-25.81a119.63,119.63,0,0,1,4.37-14.67L551.09,302a119.63,119.63,0,0,0,1.82-77.57L540,183.54q-1.07-3.37-2.33-6.68l-25.48-66.5a119.63,119.63,0,0,0-88-74.45l-33.61-6.8a119.63,119.63,0,0,1-12.45-3.22L319.6,7.32A119.63,119.63,0,0,0,228.71,15L180.6,39.72,118.89,68.34a119.63,119.63,0,0,0-66.17,81.37l-.12.5a119.63,119.63,0,0,1-23.37,47.93h0A119.63,119.63,0,0,0,3.64,258.56Z"/></g></svg>