<svg xmlns="http://www.w3.org/2000/svg" xmlns:xlink="http://www.w3.org/1999/xlink" viewBox="0 0 556 527"><defs><style>.cls-1{fill:url(#linear-gradient);}</style><linearGradient id="linear-gradient" x1="278.33" y1="-0.5" x2="278.33" y2="528.15" gradientUnits="userSpaceOnUse"><stop offset="0" stop-color="#1552a7"/><stop offset="1" stop-color="#2295d6"/></linearGradient></defs><title>menu-1</title><g id="Introduksi"><path class="cls-1" d="M6.54,221.31l-2.73,11a119.25,119.25,0,0,0,7.41,78.4L22,334.24a119.25,119.25,0,0,1,6.66,18.29l9.84,35.94A119.25,119.25,0,0,0,122.16,472l10.59,2.89a119.25,119.25,0,0,1,34.77,15.83l26.08,17.38a119.25,119.25,0,0,0,82.29,18.93l67.75-9.26A119.25,119.25,0,0,0,356,515.43l59.19-14.6A119.25,119.25,0,0,0,498.9,425.4l8.93-24.84a119.25,119.25,0,0,1,6.07-14l29.32-57.26a119.25,119.25,0,0,0,11-76.55l-8-42q-.66-3.46-1.52-6.89L527.45,135A119.25,119.25,0,0,0,449.21,50.9L416.75,40.18a119.25,119.25,0,0,1-11.94-4.67L349.11,10.19A119.25,119.25,0,0,0,258.24,7L207.69,25.74l-64.48,21a119.25,119.25,0,0,0-75.16,72.67l-.18.49a119.25,119.25,0,0,1-28.83,44.66h0A119.25,119.25,0,0,0,6.54,221.31Z"/></g></svg>